<?xml version="1.0" encoding="utf-8"?>
<!-- Generator: Adobe Illustrator 20.1.0, SVG Export Plug-In . SVG Version: 6.00 Build 0)  -->
<svg version="1.1" id="Ebene_1" xmlns="http://www.w3.org/2000/svg" xmlns:xlink="http://www.w3.org/1999/xlink" x="0px" y="0px" width="172.000000pt" height="38.000000pt" viewBox="0 0 277 36" style="enable-background:new 0 0 207 36;" xml:space="preserve">
<style type="text/css">
	.st0{fill:#FFFFFF;}
</style>
<g>
	<path class="st0" d="M170.8,20.8c0-6.8-1.9-7.9-7.3-7.9c-5.4,0-7.3,1-7.3,7.9s1.9,7.9,7.3,7.9C168.9,28.7,170.8,27.6,170.8,20.8
		L170.8,20.8z M168.6,20.8c0,5.8-1.5,6.7-5.1,6.7s-5.1-0.9-5.1-6.7s1.5-6.7,5.1-6.7S168.6,15,168.6,20.8L168.6,20.8z"/>
	<path class="st0" d="M46.2,5.7h-3.6v15.1c0,6.5,1.9,7.9,7.3,7.9v-2.4c-2,0-3.6-0.3-3.6-5.4v-5.1h3.6v-2.4h-3.6V5.7L46.2,5.7z"/>
	<path class="st0" d="M67.3,17.6c0-3.5-1.9-4.7-7.3-4.7s-7.3,1.1-7.3,7.9c0,6.8,1.9,7.9,7.3,7.9c3.6,0,6.2-0.6,6.2-0.6l0.4-2.7
		c0,0-3,0.9-6.5,0.9c-2.2,0-3.3-0.6-3.5-3.6c0,0-0.1-0.8-0.1-1.9c0-1.2,0.1-1.8,0.1-1.8c0.3-3,1.3-3.6,3.5-3.6
		c2.7,0,3.6,0.6,3.6,2.3c0,1.6-1,2-3.6,2h-1.7c0,0.1-0.1,0.5-0.1,1.2c0,0.5,0.1,1,0.1,1.3l1.7,0C65.3,22,67.3,21.2,67.3,17.6
		L67.3,17.6z"/>
	<path class="st0" d="M85.1,28.1v-7.3c0-6.8-1.9-7.9-7.3-7.9c-5.3,0-7.3,1.1-7.3,7.9c0.1,6.8,2,7.9,7.3,7.9c0.6,0,1.2,0,1.7,0
		c0-0.2,0-0.6,0-1.3c0-0.4,0-0.8,0-1.1c-0.2,0-0.5,0-0.7,0v0c-0.4,0-0.7,0-1.1,0c-2.5,0-3.6-0.7-3.6-5.4c0-4.7,1-5.4,3.6-5.4
		c2.7,0,3.6,0.8,3.6,5.4c0,0,0,5.1,0,5.1l0,3.4c0,3.6-1.2,4.2-3.6,4.2c-3.6,0-6.5-0.9-6.5-0.9l0.5,2.7c0,0,2.4,0.6,6,0.6
		C83.2,36,85.1,34.9,85.1,28.1L85.1,28.1z"/>
	<path class="st0" d="M103.3,20.8c0-6.8-1.9-7.9-7.3-7.9s-7.3,1.1-7.3,7.9s1.9,7.9,7.3,7.9S103.3,27.6,103.3,20.8L103.3,20.8z
		 M99.7,20.8c0,4.7-1,5.4-3.6,5.4s-3.6-0.8-3.6-5.4s1-5.4,3.6-5.4S99.7,16.1,99.7,20.8L99.7,20.8z"/>
	<path class="st0" d="M113.8,19.4c-2.7,0-3.4-0.5-3.4-2c0-1.5,0.8-2.1,3.4-2.1c3.6,0,6,0.9,6,0.9l-0.4-2.7c0,0-3.5-0.6-5.6-0.6
		c-5.3,0-7.1,1.2-7.1,4.5c0,3.5,1.7,4.7,7.1,4.7c2.6,0,3.4,0.5,3.4,2c0,1.5-0.8,2.1-3.4,2.1c-3.6,0-7.1-0.9-7.1-0.9l0.4,2.7
		c0,0,3.1,0.6,6.7,0.6c5.3,0,7.1-1.2,7.1-4.5C120.9,20.6,119.1,19.4,113.8,19.4L113.8,19.4z"/>
	<path class="st0" d="M138.4,28.7V17.2c0-3.3-1.9-4.2-7.3-4.2c-5.3,0-7.3,1.2-7.3,7.9c0,6.7,2,7.9,7.3,7.9c1.2,0,2.6-0.1,3.8-0.2
		c0-0.2,0-1.1,0-1.2c-0.3,0-0.6,0.1-0.9,0.1v0c-0.9,0.1-1.9,0.2-2.9,0.2c-3.7,0-5.1-0.9-5.1-6.7c0-5.8,1.4-6.7,5.1-6.7
		c3.7,0,5.1,0.8,5.1,3v9.2c0,0,0,2.6,0,2.7c-0.2,5.1-1.6,5.7-5.1,5.7c-2.9,0-5.2-0.5-6.4-0.8l0.4,1.4c1.4,0.3,3.5,0.6,6,0.6
		C136.4,36,138.4,34.7,138.4,28.7L138.4,28.7z"/>
	<path class="st0" d="M153.6,13.2c-1.2-0.2-2.8-0.3-4.4-0.3c-5.4,0-6.9,1-6.9,7.9v7.6h2.2v-7.6c0-5.8,1.1-6.7,4.7-6.7
		c1.6,0,4.6,0.5,4.6,0.5L153.6,13.2L153.6,13.2z"/>
	<path class="st0" d="M174.3,13.2v7.6c0,6.8,1.8,7.9,7.3,7.9c5.4,0,7.3-1,7.3-7.9v-7.6h-2.2v7.6c0,5.8-1.5,6.7-5.1,6.7
		s-5.1-0.9-5.1-6.7v-7.6H174.3L174.3,13.2z"/>
	<path class="st0" d="M207,20.8c0-7-2.2-7.9-7.6-7.9c-5.1,0-6.9,0.9-6.9,4.2v18.8h2.2v-7.6c0,0,0-1.3,0-1.3c0,0,0,0,0,0v-9.8
		c0-2.2,1-3,4.7-3c3.7,0,5.4,0.9,5.4,6.7c0,5.8-1.8,6.7-5.4,6.7c-1,0-1.9-0.1-2.8-0.2v0c-0.2,0-0.5,0-0.7-0.1c0,0.2,0,1,0,1.2
		c1.1,0.1,2.3,0.2,3.4,0.2C205,28.7,207,27.6,207,20.8L207,20.8z"/>
	<path class="st0" d="M17,0C7.6,0,0,7.6,0,17c0,9.4,7.6,17,17,17s17-7.6,17-17C34,7.6,26.4,0,17,0z M22.7,17h-5.7v5.7h5.7v5.7h-5.7
		v0c-3.1,0-5.7-2.5-5.7-5.7v-17h5.7v5.7h5.7V17z"/>
</g>
</svg>
